<svg xmlns="http://www.w3.org/2000/svg" width="471" height="97" viewBox="0 0 441 91" version="1">
  <path d="M372 49c2 0 1 2-1 7-1 2-5 3-6 4l-5 4c-5 1-12 2-16-1a22 22 0 0 1-11-22l5-9c9-10 24-6 31 1 2 9 5 5 3 16z" fill="#b8e0f7" fill-rule="evenodd"/>
  <path d="M353 74c4-1 9-1 11-3 6-5 14-7 18-17 5-1 1 11-1 13l-10 10c-2 1-9-2-8 3 1 3-5 2-7 3-4 0-7-1-10-3-7-3-13-3-13-3-3 1-4-1-4-4-4-2-4-6-7-8-5-5-8-11-7-18 1-3 2-6 1-9-1-6 3-10 6-11s8-3 4-3c-3-3 1-6 3-7 4-3 8-6 13-7h15c6 0 12 0 16 4 3 2 4 7 7 9 2 3 7 7 5 11-1 4 3 2 2 5-2 8 2 9-1 12-4 3-5 0-5-3 1-4 2-6 0-11l-10-12c-8-8-18-10-31-5-4 1-8 3-10 6-3 5-6 9-5 14 1 3-2 6-1 9-1 4 2 7 3 10 4 2 4 7 8 9 6 2 10 10 18 6z" fill="#4db0ea" fill-rule="evenodd"/>
  <text x="60" y="375" style="line-height:125%;text-align:center" font-weight="400" font-size="99" font-family="sans-serif" letter-spacing="0" word-spacing="0" text-anchor="middle" fill="#1a94db" transform="translate(95 -304)">
    <tspan x="60" y="375" style="-inkscape-font-specification:Arial" font-family="Arial">Therap</tspan>
  </text>
  <text x="388" y="377" style="line-height:125%;text-align:center" font-weight="400" font-size="50" font-family="sans-serif" letter-spacing="0" word-spacing="0" text-anchor="middle" transform="translate(95 -304)"/>
  <text y="375" x="323" style="line-height:125%;text-align:center" font-weight="400" font-size="99" font-family="sans-serif" letter-spacing="0" word-spacing="0" text-anchor="middle" fill="#1a94db" transform="translate(95 -304)">
    <tspan y="375" x="323" style="-inkscape-font-specification:Arial" font-family="Arial">p</tspan>
  </text>
</svg>
