<?xml version="1.0" encoding="UTF-8" standalone="no"?>
<!-- Created with Inkscape (http://www.inkscape.org/) -->

<svg
   xmlns:dc="http://purl.org/dc/elements/1.1/"
   xmlns:cc="http://creativecommons.org/ns#"
   xmlns:rdf="http://www.w3.org/1999/02/22-rdf-syntax-ns#"
   xmlns:svg="http://www.w3.org/2000/svg"
   xmlns="http://www.w3.org/2000/svg"
   xmlns:sodipodi="http://sodipodi.sourceforge.net/DTD/sodipodi-0.dtd"
   xmlns:inkscape="http://www.inkscape.org/namespaces/inkscape"
   id="svg2"
   version="1.1"
   inkscape:version="0.91 r13725"
   xml:space="preserve"
   width="654.45001"
   height="469.05014"
   viewBox="0 0 654.45001 469.05014"
   sodipodi:docname="modified_mask_template.svg"><sodipodi:namedview
     pagecolor="#ffffff"
     bordercolor="#666666"
     borderopacity="1"
     objecttolerance="10"
     gridtolerance="10"
     guidetolerance="10"
     inkscape:pageopacity="0"
     inkscape:pageshadow="2"
     inkscape:window-width="1440"
     inkscape:window-height="837"
     id="namedview4"
     showgrid="false"
     inkscape:zoom="3.7092906"
     inkscape:cx="290.25702"
     inkscape:cy="-12.624253"
     inkscape:window-x="0"
     inkscape:window-y="0"
     inkscape:window-maximized="0"
     inkscape:current-layer="g10"
     fit-margin-top="0"
     fit-margin-left="0"
     fit-margin-right="0"
     fit-margin-bottom="0"
     showguides="false" /><metadata
     id="metadata8"><rdf:RDF><cc:Work
         rdf:about=""><dc:format>image/svg+xml</dc:format><dc:type
           rdf:resource="http://purl.org/dc/dcmitype/StillImage" /><dc:title></dc:title></cc:Work></rdf:RDF></metadata><defs
     id="defs6" /><g
     id="g10"
     inkscape:groupmode="layer"
     inkscape:label="Fix The Mask_V2.0"
     transform="matrix(0.9375,0,0,0.9375,-91.574991,-102.225)"><g
       id="g136"
       transform="translate(446.72,148.48)" /><g
       id="g164"
       transform="translate(446.72,226.72)" /><g
       id="g180"
       transform="translate(446.72,226.72)" /><g
       id="g200"
       transform="translate(446.72,187.03999)" /><g
       id="g400" /><g
       id="g424" /><g
       id="g4473"
       transform="translate(0.54488224,0)"><g
         style="stroke:#8d8d8d;stroke-width:1.88976383;stroke-miterlimit:4.5;stroke-dasharray:none;stroke-opacity:1"
         transform="translate(208.32001,424.16)"
         id="g152"><path
           inkscape:connector-curvature="0"
           id="path154"
           style="fill:none;stroke:#8d8d8d;stroke-width:1.88976383;stroke-linecap:round;stroke-linejoin:round;stroke-miterlimit:4.5;stroke-dasharray:none;stroke-opacity:1"
           d="m 0,0 5.92,5.92 4.64,4.8 3.68,3.84 2.719999,3.04 2.240002,2.4 1.92,2.08 L 23.68,24.959999 26.559999,28 l 4.32,3.68 5.440001,4.8 7.68,6.720001 6.880001,7.040001 5.279999,7.519996 3.84,7.360005 3.360001,6.719993 2.879997,6.240006 5.279999,11.519996 4.319999,10.720002 4,10.4 4.480004,9.92 5.919998,8.8 5.440002,6.88001 6.24,7.83999 6.88,8.64 7.04,7.52001 7.04,5.91999 6.08001,4.48 5.59999,3.52 5.92,3.04 6.88,2.24 6.72,1.44001 8.31999,0.95999 9.92002,0.47999 9.91999,0.48001 12.48,0.64 11.36,0.48 10.56,0.32001 10.56,0.31999 11.19999,0.16" /></g><g
         style="stroke:#8d8d8d;stroke-width:1.88976383;stroke-miterlimit:4.5;stroke-dasharray:none;stroke-opacity:1"
         transform="translate(446.72,109.76)"
         id="g156"><path
           inkscape:connector-curvature="0"
           id="path158"
           style="fill:none;stroke:#8d8d8d;stroke-width:1.88976383;stroke-linecap:round;stroke-linejoin:round;stroke-miterlimit:4.5;stroke-dasharray:none;stroke-opacity:1"
           d="M 0,0 -32.16,-0.16 -62.400002,-0.32 -90.720001,-0.16 -117.28,0 l -25.11999,0.48 -8.48001,0.16 -8.32,0.32 -8.16,0.16 -8,0.32 -8,0.32 -8,0.32 -8.48,0.32 -9.76001,0.32 -7.51998,0.48 -8.64,0.8 L -236,5.28 l -5.44,0.96 -5.92,0.96 -6.56,1.6 -7.84001,2.56 -8.79999,3.52 -11.51999,5.919999 -10.72,7.200001 -8.80002,8.32 -6.88,8.959999 -6.23999,8.639999 -6.07999,8.640003 -5.76001,8.639996 -6.39999,10.880005 -5.60001,11.68 -4.64001,12.959998 -3.51999,13.92 -1.76001,14.72 -0.16,12.48 1.6,12.32 3.36002,11.68 3.83999,11.04 4.32001,10.08001 4.63999,9.43998 9.11999,15.68001 10.88001,16.48 12.48001,16.8 13.6,16.96001 11.19998,12.95999 11.68,12.16 11.84001,11.04001 11.68001,9.91998" /></g><g
         style="stroke:#8d8d8d;stroke-width:1.88976383;stroke-miterlimit:4.5;stroke-dasharray:none;stroke-opacity:1"
         transform="translate(208.32001,424.16)"
         id="g192" /><g
         style="stroke:#8d8d8d;stroke-width:1.88976383;stroke-miterlimit:4.5;stroke-dasharray:none;stroke-opacity:1"
         transform="translate(446.72,109.76)"
         id="g196" /><g
         style="stroke:#8d8d8d;stroke-width:1.88976383;stroke-miterlimit:4.5;stroke-dasharray:none;stroke-opacity:1"
         id="g4179"
         transform="translate(448.85333,148.64005)"><path
           style="fill:none;stroke:#8d8d8d;stroke-width:1.88976383;stroke-linecap:round;stroke-linejoin:round;stroke-miterlimit:4.5;stroke-dasharray:none;stroke-opacity:1"
           d="m -2.13333,417.91995 -12.8,-0.32001 -11.36,0 -10.720001,0 -11.039997,0 -12,-0.31998 -13.760002,-0.80002 -7.519997,-0.63998 -7.040001,-0.48001 -5.279999,-0.16 -3.840004,-0.32001 -2.879999,-1.12 -3.04,-2.23999 -2.24,-2.56 -2.72,-3.52001 -3.52,-4.63999 -4.16,-5.76001 -4.96,-8.31998 -3.2,-8.16 -2.24,-8.16 -2.72,-8.48001 -5.6,-18.23999 -4.32001,-18.56002 -3.36,-18.07998 -1.59999,-9.60001 -1.11999,-9.60001 -0.64,-9.91999 0.15999,-8.16001 1.12001,-8.64 2.07998,-9.75999 3.36,-10.56 5.28002,-11.68001 11.91733,-24.3179 c 10.59665,-23.95747 19.19258,-41.49404 25.232536,-56.84118 9.514365,-24.35582 23.377933,-61.247398 39.605462,-79.086889 12.189085,-12.659963 28.140899,-28.054389 46.977156,-29.380806 18.8362607,-1.326418 7.4026199,0 7.4026199,0 0,0 -11.4336409,-1.326418 7.4026199,0 18.8362572,1.326417 34.7880712,16.720843 46.9771562,29.380806 16.227529,17.839491 30.091097,54.731069 39.605462,79.086889 6.039956,15.34714 14.635888,32.88371 25.232538,56.84118 l 11.91733,24.3179 5.28002,11.68001 3.36,10.56 2.07998,9.75999 1.12001,8.64 0.15999,8.16001 -0.64,9.91999 -1.11999,9.60001 -1.59999,9.60001 -3.36,18.07998 -4.32001,18.56002 -5.6,18.23999 -2.72,8.48001 -2.24,8.16 -3.2,8.16 -4.96,8.31998 -4.16,5.76001 -3.52,4.63999 -2.72,3.52001 -2.240002,2.56 -3.04,2.23999 -2.879999,1.12 -3.840004,0.32001 -5.279999,0.16 -7.040001,0.48001 -7.519997,0.63998 -13.760002,0.80002 -12,0.31998 -11.039997,0 -10.720001,0 -11.3600002,0 -12.8,0.32001"
           id="path4418"
           inkscape:connector-curvature="0"
           sodipodi:nodetypes="ccccccccccccccccccccccccccccccccccczczccccccccccccccccccccccccccccccccccc" /></g><path
         inkscape:connector-curvature="0"
         id="path4185"
         style="fill:none;stroke:#8d8d8d;stroke-width:1.88976383;stroke-linecap:round;stroke-linejoin:round;stroke-miterlimit:4.5;stroke-dasharray:none;stroke-opacity:1"
         d="m 421.6,148.48 -23.52,0.16 -22.24,0.32 -21.12,0.16 -20.32,0.32 -20.00001,0.16 -19.67999,0.16 -20,0 -11.52,0 -11.68,-0.16 -12,0.16 -11.68,0.48 -11.2,1.76 -10.08,2.56 -8.64,3.04 -7.04,3.2 -5.6,3.2 -4.79999,3.84 -4.80002,4.64 -5.28,5.76 -5.75998,7.04 -5.92001,8.64 -4.32001,8 -4,9.12 -3.51999,10.24 -2.72,10.88 -1.76001,11.2 -0.16,11.04 1.60001,12.48 3.20001,11.68 4.16,10.72 4.79999,9.76 4.64001,8.8 4.95999,8.48 5.12,7.83999 5.60001,7.68001 6.72,8.16 8.15999,8.96 9.28,9.91999 7.04,7.36 6.72,6.72001 6.87999,5.91999 6.72001,4.80001 6.88,3.04 9.2,1.04003 c 8.34269,-1.42056 13.17242,-5.17079 17.67429,-9.12145 17.94992,-19.2153 26.97445,-42.4081 37.60043,-64.981 10.62598,-22.5729 19.22191,-40.10947 25.26186,-55.45661 9.51435,-24.35585 23.3779,-61.24745 39.60543,-79.08694 12.18908,-12.65997 28.1409,-28.05439 46.97716,-29.38081 18.83625,-1.32642 35.13594,0 35.13594,0 0,0 16.2997,-1.32642 35.13595,0 18.83626,1.32642 34.78808,16.72084 46.97716,29.38081 16.22753,17.83949 30.09108,54.73109 39.60543,79.08694 6.03995,15.34714 14.63588,32.88371 25.26186,55.45661 10.62598,22.5729 19.65051,45.7657 37.60043,64.981 4.50187,3.95066 9.3316,7.70089 17.67429,9.12145 l 9.2,-1.04003 6.88,-3.04 6.72001,-4.80001 6.87999,-5.91999 6.72,-6.72001 7.04,-7.36 9.28,-9.91999 8.15999,-8.96 6.72,-8.16 5.60001,-7.68001 5.12,-7.83999 4.95999,-8.48 4.64001,-8.8 4.79999,-9.76 4.16,-10.72 3.20001,-11.68 1.60001,-12.48 -0.16,-11.04 -1.76001,-11.2 -2.72,-10.88 -3.51999,-10.24 -4,-9.12 -4.32001,-8 -5.92001,-8.64 -5.75998,-7.04 -5.28,-5.76 -4.80002,-4.64 -4.79999,-3.84 -5.6,-3.2 -7.04,-3.2 -8.64,-3.04 -10.08,-2.56 -11.2,-1.76 -11.68,-0.48 -12,-0.16 -11.68,0.16 -11.52,0 -20,0 -19.67999,-0.16 -20.00001,-0.16 -20.32,-0.32 -21.12,-0.16 -22.24,-0.32 -23.52,-0.16 -24.57512,0 z"
         sodipodi:nodetypes="cccccccccccccccccccccccccccccccccccccccccccccczcczczcczcccccccccccccccccccccccccccccccccccccccccccccccc" /></g><g
       id="g4460"
       transform="translate(-116.1754,0)"><g
         id="g4438"
         transform="matrix(-1,0,0,1,800.7505,424.16)"
         style="stroke:#8d8d8d;stroke-width:1.88976383;stroke-miterlimit:4.5;stroke-dasharray:none;stroke-opacity:1"><path
           d="m 0,0 5.92,5.92 4.64,4.8 3.68,3.84 2.719999,3.04 2.240002,2.4 1.92,2.08 L 23.68,24.959999 26.559999,28 l 4.32,3.68 5.440001,4.8 7.68,6.720001 6.880001,7.040001 5.279999,7.519996 3.84,7.360005 3.360001,6.719993 2.879997,6.240006 5.279999,11.519996 4.319999,10.720002 4,10.4 4.480004,9.92 5.919998,8.8 5.440002,6.88001 6.24,7.83999 6.88,8.64 7.04,7.52001 7.04,5.91999 6.08001,4.48 5.59999,3.52 5.92,3.04 6.88,2.24 6.72,1.44001 8.31999,0.95999 9.92002,0.47999 9.91999,0.48001 12.48,0.64 11.36,0.48 10.56,0.32001 10.56,0.31999 11.19999,0.16"
           style="fill:none;stroke:#8d8d8d;stroke-width:1.88976383;stroke-linecap:round;stroke-linejoin:round;stroke-miterlimit:4.5;stroke-dasharray:none;stroke-opacity:1"
           id="path4440"
           inkscape:connector-curvature="0" /></g><g
         id="g4442"
         transform="matrix(-1,0,0,1,562.35051,109.76)"
         style="stroke:#8d8d8d;stroke-width:1.88976383;stroke-miterlimit:4.5;stroke-dasharray:none;stroke-opacity:1"><path
           d="M 0,0 -32.16,-0.16 -62.400002,-0.32 -90.720001,-0.16 -117.28,0 l -25.11999,0.48 -8.48001,0.16 -8.32,0.32 -8.16,0.16 -8,0.32 -8,0.32 -8,0.32 -8.48,0.32 -9.76001,0.32 -7.51998,0.48 -8.64,0.8 L -236,5.28 l -5.44,0.96 -5.92,0.96 -6.56,1.6 -7.84001,2.56 -8.79999,3.52 -11.51999,5.919999 -10.72,7.200001 -8.80002,8.32 -6.88,8.959999 -6.23999,8.639999 -6.07999,8.640003 -5.76001,8.639996 -6.39999,10.880005 -5.60001,11.68 -4.64001,12.959998 -3.51999,13.92 -1.76001,14.72 -0.16,12.48 1.6,12.32 3.36002,11.68 3.83999,11.04 4.32001,10.08001 4.63999,9.43998 9.11999,15.68001 10.88001,16.48 12.48001,16.8 13.6,16.96001 11.19998,12.95999 11.68,12.16 11.84001,11.04001 11.68001,9.91998"
           style="fill:none;stroke:#8d8d8d;stroke-width:1.88976383;stroke-linecap:round;stroke-linejoin:round;stroke-miterlimit:4.5;stroke-dasharray:none;stroke-opacity:1"
           id="path4444"
           inkscape:connector-curvature="0" /></g><g
         id="g4446"
         transform="matrix(-1,0,0,1,800.7505,424.16)"
         style="stroke:#8d8d8d;stroke-width:1.88976383;stroke-miterlimit:4.5;stroke-dasharray:none;stroke-opacity:1"><path
           d="M 227.2,184.64 216.64,184.32001 206.08,184 l -11.36,-0.48 -12.48,-0.64 -9.91999,-0.48001 -9.92002,-0.47999 -8.31999,-0.95999 -6.72,-1.44001 -6.88,-2.24 -5.92,-3.04 -5.59999,-3.52 -6.08001,-4.48 -7.04,-5.91999 -7.04,-7.52001 -6.88,-8.64 -6.24,-7.83999 -5.440002,-6.88001 -5.919998,-8.8 -4.480004,-9.92 -4,-10.4 L 71.519997,89.599998 66.239998,78.080002 63.360001,71.839996 60,65.120003 56.16,57.759998 50.880001,50.240002 44,43.200001 36.32,36.48 30.879999,31.68 26.559999,28 23.68,24.959999 21.120001,22.08 19.200001,20 16.959999,17.6 14.24,14.56 10.56,10.72 5.92,5.92 0,-5e-6 -13.28,-11.35999 -26.72001,-24.32001 -39.84,-38.4 l -12.48001,-14.88 -11.84,-15.2 -10.72,-15.04 -9.44,-14.4 -8.16,-14.08001 -4.63999,-9.43998 -4.32001,-10.08001 -3.83999,-11.04 -3.36002,-11.68 -1.6,-12.32 0.16,-12.48 1.76001,-14.72 3.51999,-13.92 4.64001,-12.96 5.60001,-11.68 6.39999,-10.88 5.76001,-8.64 6.07999,-8.64 6.23999,-8.64 6.88,-8.96 8.80002,-8.32 10.72,-7.2 11.51999,-5.92 8.79999,-3.52 7.84001,-2.56 6.56,-1.6 5.92,-0.96 5.44,-0.96 10.24001,-1.28 8.64,-0.8 7.51998,-0.48 11.04001,-0.32 9.59999,-0.32 8.96001,-0.48 9.12,-0.32 9.27999,-0.32 9.44001,-0.16 9.76001,-0.32 25.11999,-0.48 26.56,-0.16 28.32,-0.16 30.24,0.16 31.61511,0.16 31.61512,-0.16 30.24,-0.16 28.32,0.16 26.56,0.16 25.11999,0.48 9.76001,0.32 9.44001,0.16 9.27999,0.32 9.12,0.32 8.96001,0.48 9.59999,0.32 11.04001,0.32 7.51998,0.48 8.64,0.8 10.24001,1.28 5.44,0.96 5.92,0.96 6.56,1.6 7.84001,2.56 8.79999,3.52 11.51999,5.92 10.72,7.2 8.80002,8.32 6.88,8.96 6.23999,8.64 6.07999,8.64 5.76001,8.64 6.39999,10.88 5.60001,11.68 4.64001,12.96 3.51999,13.92 1.76001,14.72 0.16,12.48 -1.6,12.32 -3.36002,11.68 -3.83999,11.04 -4.32001,10.08001 -4.63999,9.43998 -8.16,14.08001 -9.44,14.4 -10.72,15.04 -11.84,15.2 -12.48001,14.88 -13.11999,14.07999 -13.44001,12.96002 -13.28,11.35998 -5.92,5.92001 -4.64,4.8 -3.68,3.84 -2.72,3.04 -2.24,2.4 -1.92,2.08 -2.56,2.88 -2.88,3.04 -4.32,3.68 -5.44,4.8 -7.68,6.72 -6.88,7.04 -5.28,7.52 -3.84,7.36 -3.36,6.72 -2.88,6.24 -5.28,11.52 -4.32,10.72 -4,10.4 -4.48,9.92 -5.92,8.8 -5.44,6.88001 -6.24,7.83999 -6.88,8.64 -7.04,7.52001 -7.04,5.91999 -6.08001,4.48 -5.59999,3.52 -5.92,3.04 -6.88,2.24 -6.72,1.44001 -8.31999,0.95999 -9.92002,0.47999 -9.91999,0.48001 -12.48,0.64 -11.36,0.48 -10.56,0.32001 -10.56,0.31999 -10.65511,0.16 z"
           style="fill:none;stroke:#8d8d8d;stroke-width:1.88976383;stroke-linecap:round;stroke-linejoin:round;stroke-miterlimit:4.5;stroke-dasharray:none;stroke-opacity:1"
           id="path4448"
           inkscape:connector-curvature="0"
           sodipodi:nodetypes="ccccccccccccccccccccccccccccccccccccccccccccccccccccccccccccccccccccccccccccccccccccccccccccccccccccccccccccccccccccccccccccccccccccccccccccccccccccccccccccccccccccccccccc" /></g><g
         id="g4450"
         transform="matrix(-1,0,0,1,562.35051,109.76)"
         style="stroke:#8d8d8d;stroke-width:1.88976383;stroke-miterlimit:4.5;stroke-dasharray:none;stroke-opacity:1" /><g
         transform="matrix(-1,0,0,1,560.21718,148.64005)"
         id="g4454"
         style="stroke:#8d8d8d;stroke-width:1.88976383;stroke-miterlimit:4.5;stroke-dasharray:none;stroke-opacity:1" /></g></g></svg>